<?xml version="1.0" standalone="no"?>
<!DOCTYPE svg PUBLIC "-//W3C//DTD SVG 20010904//EN"
 "http://www.w3.org/TR/2001/REC-SVG-20010904/DTD/svg10.dtd">
<svg version="1.0" xmlns="http://www.w3.org/2000/svg"
 width="14.000000pt" height="14.000000pt" viewBox="0 0 14.000000 14.000000"
 preserveAspectRatio="xMidYMid meet">

<g transform="translate(0.000000,14.000000) scale(0.100000,-0.100000)"
fill="#000000" stroke="none">
<path d="M105 131 c19 -8 18 -9 -5 -13 -21 -5 -22 -5 -4 -7 13 0 24 -10 28
-23 9 -36 7 -78 -4 -78 -5 0 -10 14 -10 32 l0 31 -27 -24 -27 -24 18 30 17 30
-25 -28 c-35 -37 -60 -36 -54 3 3 16 1 30 -4 30 -5 0 -8 -15 -6 -32 3 -30 7
-34 43 -39 l40 -5 -35 -6 -35 -6 35 2 c27 1 34 5 32 18 -1 9 2 19 8 23 6 4 10
-4 10 -19 0 -19 5 -26 20 -26 22 0 24 15 14 94 -6 38 -10 46 -28 45 -20 0 -21
-1 -1 -8z"/>
</g>
</svg>
